# xmcd CD database file
#
# Track frame offsets:
#	150
#	44227
#	83290
#	129649
#	168864
#	212791
#	264166
#	290462
#	309917
#
# Disc length: 4432 seconds
#
# Revision: 1
# Processed by: cddbd v1.5.1PL2 Copyright (c) Steve Scherf et al.
# Submitted via: CDex 1.51
#
DISCID=75114e09
DTITLE=Digiview Entertainment Mind Therapy - Running Stream
DYEAR=2005
DGENRE=New Age
TTITLE0=Running Stream 01
TTITLE1=Running Stream 02
TTITLE2=Running Stream 03
TTITLE3=Running Stream 04
TTITLE4=Running Stream 05
TTITLE5=Running Stream 06
TTITLE6=Running Stream 07
TTITLE7=Running Stream 08
TTITLE8=Running Stream 09
EXTD=YEAR: 2005
EXTT0=
EXTT1=
EXTT2=
EXTT3=
EXTT4=
EXTT5=
EXTT6=
EXTT7=
EXTT8=
PLAYORDER=
